<svg version="1.1" id="Layer_1" xmlns="http://www.w3.org/2000/svg" xmlns:xlink="http://www.w3.org/1999/xlink" x="0px" y="0px" viewBox="95.9371255457427 23.545952977025326 984.6628744542572 1152.7540470229744" xml:space="preserve" enable-background="new 0 0 1200 1200">

<g>
	<path class="st0" d="M419.4,961.5c-69.2-3.2-121.6,47.2-156.1,35.4c102.1-23.6,114.6-236.4,64.1-524.2
		c-36.9-209.9,85-350.2,223.2-393.5c49.5-21.4,106-32,167-29.2c116.7,5.3,225.9,58.9,305.3,139.8C961.7,110.3,875.4,47.9,710.6,25.1
		c-499.3-29.3-510.7,364.7-496.5,424c14.2,59.3-125,203.3-117.9,231.8c7.1,28.5,93.3,51.4,93.3,61.7c0,10.3-23.7,24.5-22.9,40.3
		c0.8,15.8,49,29.3,49,29.3s-33.2,31.6-34,49c-0.8,17.4,30.1,19,28.5,44.3c-1.6,25.3-28.5,102.8,45.1,115.5
		c73.6,12.7,83.1-50.6,180.7-18.8c96.9,31.6,60,171.8,59.4,173.9C593.4,1050.2,488.3,965,419.4,961.5z" fill="#0f3094"></path>
	<path class="st1" d="M1038.6,734.9c-64.7,56.4-153.3,88.4-253.8,83.8c-135.9-6.2-261.6-77.8-342-181.9
		c-49.3-63.8-81.5-139.9-88.5-220.6c-13.4-153.3,67.7-281.4,196.4-337c-138.2,43.4-260.1,183.6-223.2,393.5
		c50.5,287.8,38,500.6-64.1,524.2c34.5,11.8,86.8-38.7,156.1-35.4c69,3.5,174,88.6,76.1,214.7c0,0-0.1,0.1-0.1,0.1
		c254.2-37,494.9-269.4,585.1-485.6C1067.9,706.8,1053.9,721.5,1038.6,734.9z" fill="#0b2268"></path>
	<g>
		<path d="M875.8,716.6c-7.8,0-15.1-3.1-20.6-8.6s-8.5-12.9-8.5-20.7c0-11.6,7-22,17.4-26.6l-0.7-56.8c-6.1-2.6-11.2-7.1-14.6-12.8
			c-3.3-5.5-4.7-11.9-4.3-18.3l-24-12.2c-6,5.5-13.9,8.7-22.2,8.7c-18.2,0-32.9-14.8-32.8-32.9c0-18.1,14.8-32.7,32.8-32.7
			c18.2,0,32.9,14.8,32.8,32.9c0,1.2-0.1,2.4-0.2,3.6l23.5,11.9c1.6-1.5,3.4-2.9,5.4-4c0.2-0.1,0.5-0.3,0.7-0.4L846,491.4h-66.6
			v-8.6h-1c-6.7,0-12.4-4.8-13.7-11.1h-2.2l-18.9,9.5c0.2,10.9-5.5,21.2-15,26.9c-1.2,0.7-2.4,1.3-3.6,1.8l-0.5,46.1
			c5.2,2.4,9.6,6.4,12.5,11.4c3,5.2,4.2,11.2,3.6,17.1l37.2,22c0.4-0.3,0.8-0.5,1.2-0.8c3.4-2,7.3-3,11.3-3c8,0,15.5,4.3,19.6,11.3
			c3,5.2,3.8,11.3,2.2,17.1c-1.6,5.8-5.3,10.7-10.5,13.7c-3.4,2-7.3,3-11.3,3c-8,0-15.5-4.3-19.6-11.3c-1.6-2.9-2.6-6-2.9-9.3
			l-38.9-23c-0.7,0.5-1.4,0.9-2.1,1.3c-4.2,2.4-9.1,3.7-13.9,3.7c-10,0-19.3-5.4-24.2-14c-3.7-6.5-4.7-14-2.8-21.2
			c1.9-7.2,6.6-13.2,13-17c0.9-0.5,1.8-0.9,2.7-1.3l0.5-45.6c-6.4-2.5-11.8-7-15.3-13c-4.2-7-5.3-15.3-3.3-23.2
			c2-7.9,7-14.6,14.1-18.7c4.7-2.8,10.1-4.3,15.5-4.3c8.1,0,15.9,3.3,21.6,8.9l21.8-11v-83.6h8.1c0.8-7,6.8-12.4,13.9-12.4h1v-7.3
			h39.7l-0.4-11.1c-12.1-2.2-22.6-9.6-28.8-20.3c-10.2-17.5-6.5-39.4,8.4-52.5L764.1,196c-0.5,0-1,0-1.5,0c-9.9,0-18.9-5.1-24-13.5
			c-0.8-1.3-1.4-2.6-2-4l-32.9-1.3c-1.5,2.5-3.4,4.6-5.6,6.5l10.6,37.7c22.5,0.6,40.6,19.1,40.6,41.7c0,17.8-11.2,33.4-27.7,39.2
			l1.6,29.3c10.5,2.6,19.4,9.2,24.8,18.6c5.3,9.2,6.7,19.8,4,30.1c-2.7,10.2-9.3,18.8-18.4,24.1c-6,3.5-12.9,5.3-19.8,5.3
			c-10.7,0-21.1-4.5-28.5-12.1l-32.4,17.9c1.9,5.9,2.9,11.9,2.9,18.1c0,20.4-10.4,39.1-27.4,49.9l11,28.3
			c10.2,1.9,17.7,10.7,17.7,21.4c0,12-9.8,21.7-21.7,21.7c-5.9,0-11.3-2.3-15.4-6.4c-4.1-4.1-6.3-9.6-6.3-15.4c0-4.8,1.5-9.3,4.3-13
			l-11-28.3c-3.5,0.6-6.9,0.9-10.3,0.9c-32.6,0-59.2-26.5-59.2-59.2s26.5-59.2,59.2-59.2c17.4,0,33.9,7.8,45.1,21l33-18.3
			c-3-16.3,4.5-33,19.1-41.4c2-1.2,4.2-2.2,6.4-3l-1.6-29.1c-18.9-4.1-32.8-20.9-32.8-40.7c0-14.8,7.9-28.5,20.6-35.9l-10.5-37.7
			c-3.4-0.6-6.6-1.9-9.5-3.8l-30.2,12.8c0.3,14.4-7.1,27.9-19.8,35.3c-6,3.5-12.9,5.3-19.8,5.3c-12,0-23.2-5.3-30.7-14.5l-33,15.3
			c0.8,3.5,1.2,7.1,1.2,10.6c0,3.1-0.3,6.3-0.9,9.4l34.5,14.9c2.6-2.8,5.6-5.2,9-7.1c6-3.5,12.9-5.4,19.9-5.4
			c14.1,0,27.3,7.6,34.3,19.8c11,18.9,4.5,43.2-14.4,54.2c-6,3.5-12.9,5.4-19.9,5.4c-11.3,0-22-4.8-29.5-13.1l-43.4,23.2
			c1.8,12.3-3.9,24.7-14.8,31.2c-1.9,1.1-3.9,2-6,2.7l-2.2,39.3c4.5,2.4,8.4,6,11.1,10.4c3.8,6.4,5,13.9,3.2,21.2
			c-1.8,7.2-6.3,13.4-12.7,17.2c-4.4,2.6-9.3,4-14.4,4c-9.8,0-18.9-5.2-24-13.5c-2.9-4.8-4.2-10.3-3.9-15.9l-32.4-16.7
			c-5.7,5-13.1,7.8-20.8,7.8c-5.3,0-10.5-1.4-15.1-3.9c-15.2-8.4-20.7-27.5-12.4-42.7c3.6-6.5,9.1-11.3,15.9-14l0.1-44.1
			c-2.5-1.7-4.5-4-6.1-6.6c-3-5-3.9-10.8-2.5-16.5c1.4-5.6,4.9-10.4,9.9-13.4c3.4-2,7.3-3.1,11.2-3.1c7.6,0,14.8,4,18.7,10.6
			c6.2,10.3,2.9,23.7-7.4,29.9c-0.3,0.2-0.5,0.3-0.8,0.5l-0.1,42.6c1.3,0.5,2.6,1.1,3.9,1.8c11.1,6.1,17.4,18.4,16.1,30.8l32.3,16.6
			c1-0.8,1.9-1.5,3-2.1c1.4-0.8,2.8-1.5,4.4-2.1l2.2-39.3c-5.6-2.6-10.4-6.9-13.5-12.2c-4.2-7.1-5.4-15.5-3.4-23.5
			c2-8,7.1-14.8,14.2-19c4.8-2.8,10.2-4.3,15.8-4.3c7,0,13.8,2.4,19.2,6.6l45.2-24.1c-0.6-4.1-0.5-8.2,0.1-12.3l-33.9-14.7
			c-9.2,11.7-23.3,18.6-38.3,18.6c-26.9,0-48.9-21.9-48.9-48.9c0-26.9,21.9-48.9,48.9-48.9c14.6,0,28.3,6.5,37.5,17.6l34.4-15.9
			c-1.5-15.4,6-30.4,19.5-38.2c6-3.5,12.9-5.4,19.9-5.4c12.3,0,24,5.8,31.5,15.5l26.1-11.1c0-0.4,0-0.7,0-1.1
			c0-14.7,12-26.7,26.8-26.7c11.5,0,21.5,7.3,25.2,17.9l31.4,1.3c2.4-4.7,6-8.7,10.6-11.4c4.4-2.6,9.3-4,14.4-4
			c9.8,0,18.9,5.2,24,13.5c6.1,10.1,5.2,22.7-2,31.7l34.4,66.2c2.4-0.4,4.9-0.7,7.4-0.7c15,0,28.9,8,36.4,20.9
			c11.6,20.1,4.8,45.9-15.3,57.5c-1.8,1.1-3.8,2-5.8,2.8l0.5,13.4h43.7v8.6c4.5,1.9,7.8,6.2,8.4,11.1h8.1v106.3h-8.3
			c-1,4.4-4,8.1-8.1,9.9v9.8h-14.3l14,53.8c2.6,0.8,5.1,2,7.4,3.4l23.9-16.4c-0.1-1-0.2-2-0.2-3.1c0-9.1,5.4-17.3,13.5-21l-0.9-26.6
			c-2.4-0.8-4.7-1.8-6.9-3.1c-7.7-4.6-13.1-11.9-15.2-20.6c-2.2-8.7-0.8-17.7,3.8-25.3c3.3-5.6,8.2-10,14-12.8l-1.2-34.3
			c-6.6-2.5-12.1-7-15.8-13.2c-4.2-7.1-5.4-15.5-3.4-23.5s7.1-14.8,14.2-19c2-1.2,4.2-2.2,6.5-2.9l2.5-34.2
			c-17.8-6.1-29.8-22.8-29.8-42c0-5.2,0.9-10.2,2.7-15.1l-31.6-22c-0.5,0.4-1.1,0.7-1.7,1c-4.7,2.7-10,4.1-15.3,4.1
			c-10.9,0-21-5.8-26.5-15.2c-4.1-7.1-5.2-15.3-3.1-23.2c2.1-7.9,7.1-14.5,14.2-18.6c4.7-2.7,10-4.1,15.3-4.1
			c10.9,0,21,5.8,26.5,15.2c3.8,6.6,5,14.3,3.4,21.7l31.8,22.2c8-6.8,18-10.5,28.7-10.5c24.5,0,44.5,19.9,44.5,44.5
			c0,21.7-15.3,39.8-36.2,43.7l-2.5,34.2c2.9,1.4,5.5,3.2,7.8,5.4l35.6-16.3c-0.1-5.3,1.2-10.5,4-15.1c5-8.4,14.2-13.5,24-13.5
			c5.1,0,10,1.4,14.4,4c6.4,3.8,10.9,10,12.7,17.2c1.8,7.2,0.7,14.8-3.2,21.2c-2.7,4.5-6.7,8.2-11.4,10.6v40.7
			c10,4.5,16.6,14.7,16.5,25.9c-0.2,15.2-12.8,27.5-27.9,27.5c0,0-0.4,0-0.4,0c-7.5-0.1-14.4-3.1-19.6-8.5c-5.2-5.4-8-12.4-7.9-19.9
			c0.2-11,6.6-20.7,16.5-25v-39.7c-1.4-0.6-2.7-1.2-4-2c-1.3-0.8-2.5-1.6-3.6-2.6l-36,16.5c0.6,11.4-5.2,22.4-15.1,28.2
			c-0.7,0.4-1.5,0.8-2.2,1.2l1.2,33.6c2.6,0.8,5.1,1.9,7.4,3.3c12,7.2,18.1,21,15.7,34.6l37.2,21.7c2.6-1.1,5.5-1.7,8.3-1.7l0.3,0
			c11.8,0.2,21.2,9.9,21,21.7c-0.2,11.6-9.7,21-21.3,21l-0.3,0c-11.8-0.2-21.2-9.9-21-21.7c0-0.1,0-0.2,0-0.3l-35.8-20.8
			c-2.6,2.2-5.6,4-8.8,5.3l1,29.5c6.2,4.3,10,11.4,9.9,19.2c-0.1,12.8-10.5,23.1-23.3,23.1l-0.1,0c-3.2,0-6.3-0.7-9.1-1.9
			l-24.2,16.6c3.4,13.3-2.3,27.8-14.4,34.9c-1.7,1-3.6,1.9-5.5,2.5l0.7,55.8c10.8,4.5,18.1,15.1,18.1,27
			C905,703.5,891.9,716.6,875.8,716.6L875.8,716.6z M867.6,461.2c4.3,0,7.8-3.5,7.8-7.8v-8.5l-14,16.3H867.6z M838.6,461.2
			l36.8-42.8v-1.7l-38.2,44.5H838.6z M783.2,454.4c0.5,3.8,3.8,6.8,7.8,6.8h4.9l73.2-85.1c-0.5-0.1-1-0.1-1.5-0.1h-16.9L783.2,454.4
			z"></path>
		<path class="st2" d="M680.9,141.5C680.9,141.5,680.9,141.5,680.9,141.5c10.7,0,19.5,7.6,21.4,17.7l38.6,1.6
			c1.7-5,5.1-9.4,9.9-12.3c3.7-2.2,7.8-3.3,11.8-3.3c7.8,0,15.4,4,19.7,11.1c5.6,9.4,3.8,21.1-3.8,28.4l37.7,72.7
			c3.3-0.9,6.7-1.4,10-1.4c12.8,0,25.2,6.6,32.1,18.4c10.3,17.7,4.2,40.4-13.5,50.7c-2.7,1.6-5.5,2.7-8.4,3.5l1.1,29.2h6.2v-7.3h7.3
			v7.3h7.6v-7.3h7.3v7.3h7.6v-7.3h7.3v7.4c4.7,0.3,8.5,4.1,8.5,8.9v3.4h8v7.3h-8v7.6h8v7.3h-8v7.6h8v7.3h-8v7.6h8v7.3h-8v7.6h8v7.3
			h-8v7.6h8v7.3h-8v7.6h8v7.3h-8v2.1c0,4.8-3.8,8.6-8.5,8.9v8.7h-7.3v-8.6h-7.6v8.6h-1l16.3,62.9c4.1,0.9,8.1,2.7,11.4,5.5
			l29.5-20.3c-0.5-1.7-0.8-3.4-0.8-5.3c0-8.5,5.8-15.5,13.7-17.5l-1.2-34c-3.2-0.6-6.3-1.8-9.2-3.5c-13.5-8.1-17.8-25.6-9.7-39.1
			c3.5-5.9,8.9-10,14.9-12.2l-1.5-41.3c-6.6-1.6-12.6-5.7-16.4-12c-7.3-12.4-3.3-28.3,9.1-35.7c2.8-1.6,5.7-2.7,8.7-3.2l3.1-41.8
			c-17.3-4.2-30.1-19.7-30.1-38.3c0-6.1,1.4-11.8,3.8-16.9l-37.9-26.4c-1.2,1.1-2.6,2.1-4,2.9c-4,2.3-8.4,3.5-12.8,3.5
			c-8.8,0-17.4-4.6-22.1-12.7c-7.1-12.2-2.9-27.9,9.3-34.9c4-2.3,8.4-3.5,12.8-3.5c8.8,0,17.4,4.6,22.1,12.7
			c3.9,6.7,4.4,14.5,2,21.3l38,26.5c7.2-7.3,17.1-11.9,28.2-11.9c21.8,0,39.5,17.7,39.5,39.5c0,20.6-15.7,37.4-35.8,39.3l-3.1,41.8
			c4.6,1.5,8.7,4.3,11.9,8.2l42.1-19.3c-0.9-5.2,0-10.7,3-15.6c4.3-7.2,11.9-11.1,19.7-11.1c4,0,8.1,1.1,11.8,3.3
			c10.9,6.5,14.4,20.6,7.8,31.5c-2.9,4.8-7.2,8.1-12.1,9.8v47.4c9.6,2.8,16.6,11.8,16.5,22.3c-0.2,12.5-10.4,22.6-22.9,22.6
			c-0.1,0-0.2,0-0.4,0c-12.7-0.2-22.8-10.6-22.6-23.3c0.2-10.3,7.1-18.9,16.5-21.7v-46.8c-2.2-0.5-4.4-1.4-6.4-2.6
			c-2-1.2-3.7-2.6-5.2-4.3L960,351.6c1.9,10.4-2.7,21.3-12.3,27c-1.5,0.9-3.1,1.7-4.8,2.2l1.5,40.8c3.3,0.6,6.6,1.8,9.7,3.6
			c11.5,6.9,16.3,20.5,12.5,32.8l42.7,24.9c2.5-1.5,5.4-2.4,8.5-2.4c0.1,0,0.2,0,0.3,0c9,0.1,16.2,7.6,16.1,16.6
			c-0.1,8.9-7.4,16.1-16.3,16.1c-0.1,0-0.2,0-0.3,0c-9-0.1-16.2-7.6-16.1-16.6c0-1,0.1-2,0.3-3l-41.8-24.3
			c-3.7,3.9-8.3,6.6-13.2,7.9l1.3,35.9c5.9,3.1,9.9,9.2,9.8,16.3c-0.1,10-8.2,18.2-18.3,18.2c0,0-0.1,0-0.1,0c-3.5,0-6.8-1-9.5-2.8
			l-29.8,20.5c4.8,11.9,0.4,25.9-11,32.6c-2.5,1.5-5.2,2.5-8,3.1l0.7,63.1c10.4,2.8,18,12.2,18,23.4c0,13.4-10.9,24.2-24.2,24.2
			c0,0,0,0-0.1,0c-13.4,0-24.2-10.9-24.2-24.3c0-11,7.4-20.3,17.5-23.2l-0.8-63.8c-6.2-1.8-11.7-5.9-15.2-11.9
			c-3.4-5.8-4.4-12.4-3.1-18.6l-30.4-15.4c-5.1,6-12.7,9.8-21.2,9.8c0,0,0,0-0.1,0c-15.4,0-27.8-12.5-27.7-27.9
			c0-15.3,12.5-27.7,27.8-27.7c0,0,0,0,0.1,0c15.4,0,27.8,12.5,27.7,27.9c0,2.2-0.3,4.3-0.8,6.4l30.2,15.3c1.9-2.3,4.2-4.3,6.8-5.9
			c1.3-0.8,2.7-1.4,4-1.9l-16.6-64h-6.1v-8.6h-7.6v8.6h-7.3v-8.6h-7.6v8.6h-7.3v-8.6h-7.6v8.6h-7.3v-8.6h-7.6v8.6h-7.3v-8.6h-6
			c-5,0-9-4-9-9v-2.1h-8v-0.1l-23.1,11.6c1.4,9.9-3.2,20.1-12.4,25.5c-1.9,1.2-4,2-6.1,2.6l-0.6,53.1c5.4,1.6,10.2,5.2,13.2,10.5
			c3.1,5.4,3.8,11.5,2.3,17.1l43.1,25.5c1-0.9,2.1-1.8,3.3-2.5c2.8-1.6,5.8-2.4,8.8-2.4c6.1,0,12,3.2,15.2,8.8
			c4.8,8.4,2,19.1-6.4,24c-2.8,1.6-5.8,2.4-8.8,2.4c-6.1,0-12-3.2-15.2-8.8c-1.8-3-2.5-6.4-2.3-9.6l-44.3-26.2
			c-1.2,1.1-2.6,2.2-4.1,3.1c-3.6,2.1-7.6,3.1-11.4,3.1c-7.9,0-15.6-4.1-19.9-11.5c-6.3-11-2.6-25,8.4-31.3c1.7-1,3.4-1.7,5.1-2.2
			l0.5-52.8c-6.5-1.6-12.4-5.6-16-11.9c-7.2-12.2-3.2-27.9,9-35.1c4.1-2.4,8.6-3.6,13-3.6c7.8,0,15.5,3.6,20.4,10.1l28.5-14.4h-0.5
			v-7.3h8V437h-8v-7.3h8v-7.6h-8v-7.3h8v-7.6h-8v-7.3h8v-7.6h-8v-7.3h8v-7.6h-8v-7.3h8V367c0-5,4-9,9-9h6v-7.3h7.3v7.3h7.6v-7.3h7.3
			v7.3h7.6v-7.3h7.3v7.3h3.2l-1.1-27.9c-11.8-0.9-23-7.4-29.4-18.4c-9.7-16.6-4.9-37.7,10.4-48.7l-37.6-72.4
			c-1.4,0.3-2.9,0.4-4.4,0.4c-7.8,0-15.4-3.9-19.7-11.1c-1.2-2-2.1-4.1-2.6-6.2l-39.5-1.6c-1.8,4-4.7,7.3-8.4,9.6l12.5,44.8
			c0.9-0.1,1.8-0.1,2.7-0.1c20.3,0,36.7,16.4,36.7,36.7c0,17.2-11.9,31.7-27.9,35.6l2,37.1c10.2,1.4,19.7,7.3,25.3,16.9
			c9.6,16.6,4,37.8-12.6,47.4c-5.5,3.2-11.4,4.7-17.3,4.7c-10.5,0-20.7-4.8-27.4-13.4l-39.6,22c2.6,6.3,4,13.2,4,20.4
			c0,20.7-11.6,38.6-28.6,47.8l13.6,35.1c9,0.2,16.3,7.6,16.3,16.7c0,9.2-7.5,16.7-16.7,16.7c0,0,0,0,0,0c-9.2,0-16.7-7.5-16.7-16.8
			c0-4.7,2-8.9,5.1-12L610,486.3c-4.3,1.1-8.8,1.7-13.4,1.7c-29.9,0-54.2-24.3-54.2-54.2c0-29.9,24.2-54.2,54.2-54.2
			c18,0,34,8.9,43.8,22.4l40-22.2c-4.4-15,1.8-31.5,15.8-39.7c2.9-1.7,6-2.9,9.1-3.7l-2-37c-18.3-2.1-32.5-17.6-32.5-36.4
			c0-14.8,8.8-27.6,21.5-33.3L679.8,185c-4.8-0.2-9.2-2.1-12.7-4.9L631,195.3c1.6,13.3-4.7,27-17,34.1c-5.5,3.2-11.4,4.7-17.3,4.7
			c-11.4,0-22.5-5.6-29.1-15.7L527,237.1c1.4,4.2,2.1,8.7,2.1,13.4c0,4.3-0.6,8.4-1.8,12.3l41.8,18.1c2.7-3.5,6-6.5,10.1-8.9
			c5.5-3.2,11.5-4.7,17.4-4.7c12,0,23.6,6.2,30,17.3c9.6,16.6,4,37.8-12.6,47.4c-5.5,3.2-11.4,4.7-17.3,4.7
			c-10.9,0-21.5-5.2-28.2-14.5L518,349.1c3.2,11.1-1.3,23.3-11.7,29.5c-2.6,1.6-5.4,2.6-8.3,3.1l-2.6,46.4c4.8,1.7,9.1,5.1,12,9.8
			c6.5,10.9,3,25-7.8,31.5c-3.7,2.2-7.8,3.3-11.8,3.3c-7.8,0-15.4-4-19.7-11.1c-3-5-3.9-10.8-2.9-16.1l-38.7-19.9
			c-5.1,5.7-12.4,8.9-19.8,8.9c-4.3,0-8.7-1.1-12.7-3.3c-12.8-7.1-17.5-23.1-10.4-35.9c3.6-6.6,9.7-11,16.5-12.8l0.2-50.6
			c-2.7-1.4-5.1-3.5-6.8-6.3c-4.8-7.9-2.2-18.3,5.7-23c2.7-1.6,5.7-2.4,8.6-2.4c5.7,0,11.2,2.9,14.4,8.1c4.8,7.9,2.2,18.3-5.7,23
			c-1,0.6-2.1,1.1-3.2,1.5l-0.1,49.6c2.2,0.5,4.4,1.4,6.5,2.5c10.6,5.9,15.6,18,13,29.2l38.6,19.9c1.4-1.4,3-2.7,4.8-3.8
			c2.1-1.3,4.3-2.1,6.6-2.7l2.6-46.4c-5.8-1.9-11.1-5.8-14.4-11.5c-7.3-12.4-3.3-28.3,9.1-35.7c4.2-2.5,8.7-3.6,13.2-3.6
			c6.8,0,13.6,2.7,18.5,7.7l51.5-27.5c-1.5-6-1.3-12.1,0.3-17.9l-41.4-17.9c-7.8,11.9-21.3,19.8-36.6,19.8
			c-24.2,0-43.9-19.6-43.9-43.9c0-24.2,19.6-43.9,43.9-43.9c14.9,0,28.1,7.5,36,18.8l41.4-19.1c-2.9-14.2,3.3-29.2,16.5-36.9
			c5.5-3.2,11.4-4.7,17.3-4.7c11.7,0,23.2,6,29.7,16.7l33.3-14.1c-0.3-1.4-0.4-2.8-0.4-4.2C659.1,151.2,668.9,141.5,680.9,141.5
			 M791,466.2h7.2l78.5-91.4c-2.3-2.4-5.6-3.9-9.2-3.9h-19.2l-70.2,81.7v0.7C778.2,460.4,783.9,466.2,791,466.2 M778.2,436.3
			l56.2-65.4h-12.8l-43.4,50.5V436.3 M778.2,388.7l15.3-17.8H791c-7.1,0-12.8,5.7-12.8,12.8V388.7 M826.2,466.2h14.7l39.5-45.9
			v-17.1L826.2,466.2 M850.5,466.2h17.1c7.1,0,12.8-5.7,12.8-12.8v-21.9L850.5,466.2 M680.9,131.5L680.9,131.5
			c-16.7,0-30.5,13-31.7,29.4l-19.7,8.4c-8.4-9.1-20.4-14.5-32.9-14.5c-7.8,0-15.6,2.1-22.4,6c-14.2,8.2-22.5,23.4-22.2,39.4
			L524,213.2c-10.1-10.5-24.1-16.5-38.8-16.5c-29.7,0-53.9,24.2-53.9,53.9c0,29.7,24.2,53.9,53.9,53.9c15.3,0,29.6-6.4,39.8-17.5
			l27.1,11.7c-0.2,2.1-0.2,4.2,0,6.4L512.6,326c-5.8-3.7-12.6-5.8-19.6-5.8c-6.4,0-12.8,1.7-18.3,5c-8.3,4.9-14.1,12.8-16.5,22.1
			c-2.4,9.3-1,19,3.9,27.3c3.1,5.2,7.5,9.6,12.7,12.6l-1.8,33.1c-0.7,0.4-1.4,0.8-2.1,1.2c-0.3,0.2-0.6,0.3-0.8,0.5l-26.7-13.8
			c0.1-13.2-7-25.7-18.8-32.2c-0.4-0.2-0.8-0.5-1.3-0.7l0.1-36.6c11.4-8,14.8-23.6,7.6-35.7c-4.8-8-13.6-13-23-13
			c-4.9,0-9.6,1.3-13.8,3.8c-6.1,3.7-10.5,9.5-12.2,16.5c-1.7,6.9-0.6,14.1,3,20.3c1.5,2.4,3.3,4.6,5.4,6.4l-0.1,38.5
			c-6.4,3.3-11.7,8.4-15.3,14.8c-9.7,17.6-3.3,39.8,14.3,49.5c5.4,3,11.4,4.5,17.6,4.5c7.7,0,15.2-2.4,21.3-6.9l26.8,13.8
			c0.3,5.4,1.8,10.7,4.7,15.4c5.9,9.8,16.7,16,28.3,16c6,0,11.8-1.6,17-4.7c7.5-4.5,12.9-11.7,15-20.3c2.1-8.5,0.8-17.4-3.7-24.9
			c-2.6-4.3-6.1-7.9-10.2-10.6l1.8-33c1.3-0.6,2.6-1.2,3.8-1.9c11.6-6.9,18.2-19.6,17.6-32.6l37.2-19.8c8.2,7.6,19,11.9,30.4,11.9
			c7.8,0,15.6-2.1,22.4-6c21.3-12.4,28.6-39.7,16.2-61c-8-13.7-22.8-22.3-38.7-22.3c-7.8,0-15.6,2.1-22.4,6
			c-2.7,1.6-5.3,3.4-7.6,5.5l-27.9-12c0.3-2.1,0.4-4.2,0.4-6.4c0-2.6-0.2-5.2-0.6-7.7l26.2-12.1c8.3,8.5,19.7,13.4,31.9,13.4
			c7.8,0,15.5-2.1,22.3-6c13.2-7.7,21.4-21.4,22.2-36.2l24.9-10.5c1.9,1,3.8,1.8,5.8,2.4l8.8,31.4c-12.2,8.7-19.7,22.8-19.7,38.1
			c0,20.8,13.7,38.7,33,44.6l1.2,21.9c-1.3,0.6-2.5,1.2-3.7,1.9c-15.4,8.9-23.8,25.9-22,43.1l-26.5,14.7
			c-12-12.5-28.7-19.7-46.2-19.7c-35.4,0-64.2,28.8-64.2,64.2s28.8,64.2,64.2,64.2c2.3,0,4.7-0.1,7.1-0.4l8.6,22.2
			c-2.4,4.1-3.7,8.7-3.7,13.6c0,7.1,2.7,13.9,7.8,18.9c5,5.1,11.7,7.9,18.9,7.9h0h0.1c14.7,0,26.7-12,26.7-26.7
			c0-7-2.7-13.7-7.6-18.7c-3.2-3.3-7.1-5.7-11.4-6.9l-8.6-22.2c16.4-12,26.3-31.1,26.3-51.8c0-5.3-0.7-10.6-1.9-15.7l25.7-14.3
			c8.1,7,18.5,10.9,29.3,10.9c7.8,0,15.5-2.1,22.3-6c6.3-3.6,11.5-8.7,15.3-14.6v8.3v4.8v10v4.8v10v4.8v8.9l-16.1,8.1
			c-6.3-5.1-14.2-7.9-22.4-7.9c-6.3,0-12.6,1.7-18.1,4.9c-16.9,10-22.5,31.9-12.6,48.8c3.5,6,8.6,10.6,14.6,13.7l-0.4,39.3
			c-0.1,0-0.1,0.1-0.2,0.1c-7.6,4.4-13.1,11.5-15.4,20c-2.3,8.5-1.1,17.4,3.3,25c5.9,10.2,16.8,16.5,28.6,16.5
			c5.6,0,11.2-1.5,16.1-4.2l34.2,20.2c0.6,3,1.6,6,3.2,8.7c4.9,8.5,14.1,13.8,23.9,13.8c4.8,0,9.6-1.3,13.8-3.7
			c6.4-3.7,10.9-9.6,12.8-16.7c1.9-7.1,0.9-14.5-2.7-20.9c-4.9-8.5-14.1-13.8-23.9-13.8c-4.3,0-8.6,1-12.5,3l-32-18.9
			c0.1-5.9-1.4-11.6-4.4-16.8c-2.9-5-6.9-9.1-11.8-11.9l0.4-40c0.4-0.2,0.8-0.5,1.2-0.7c10.2-6,16.6-16.6,17.4-28.1l13.1-6.6
			c2.6,4.9,7.3,8.5,12.8,9.7v9h10h7.3h10h4.8h10h4.8h10h4.8h5.9l12.7,49c-0.3,0.2-0.7,0.5-1,0.7l-17.6-8.9c0-0.2,0-0.4,0-0.6
			c0-20.9-16.9-37.9-37.7-37.9l-0.1,0c-20.8,0-37.8,16.9-37.8,37.7c0,10.1,3.9,19.6,11,26.8c7.1,7.2,16.6,11.1,26.7,11.1l0.1,0
			c8.3,0,16.3-2.7,22.9-7.7l18.2,9.2c0.1,6.2,1.8,12.4,5,17.8c3.4,5.7,8.2,10.3,13.9,13.4l0.6,50.6c-10.5,6-17.4,17.3-17.4,29.7
			c0,9.1,3.5,17.7,10,24.2c6.4,6.5,15,10.1,24.2,10.1l0.1,0c18.8,0,34.2-15.3,34.2-34.1c0-12.8-7.1-24.4-18.1-30.2l-0.6-49.3
			c1-0.5,2-1,3-1.6c7.5-4.5,13.2-11.5,16-19.8c1.8-5.6,2.3-11.4,1.4-17.1l19.3-13.3c2.7,0.9,5.6,1.3,8.4,1.3l0.2,0
			c15.5,0,28.2-12.6,28.3-28.1c0-8.5-3.7-16.4-10-21.7l-0.8-23.8c1.4-0.7,2.8-1.5,4-2.4l30.5,17.8c1.2,13.2,12.2,23.8,25.8,24
			c0.1,0,0.3,0,0.4,0c14.3,0,26.1-11.6,26.3-25.9c0.1-7-2.5-13.7-7.4-18.7c-4.9-5.1-11.5-7.9-18.5-8c-0.1,0-0.3,0-0.4,0
			c-2.7,0-5.3,0.4-7.9,1.2L977.7,453c1.3-14.4-5.7-28.6-18.5-36.2c-1.7-1-3.4-1.9-5.1-2.6l-1-27.1c10.3-6.3,16.6-17.3,17.2-29.1
			l30.3-13.9c0.5,0.4,1.1,0.7,1.7,1.1c0.5,0.3,1,0.6,1.5,0.9v33.4c-9.9,5.7-16.3,16.2-16.5,28c-0.1,8.8,3.2,17.1,9.3,23.4
			c6.1,6.3,14.3,9.9,23.1,10c0.2,0,0.4,0,0.5,0c8.7,0,16.9-3.4,23.1-9.5c6.2-6.1,9.7-14.3,9.8-23c0.2-12.1-6.3-23.1-16.5-29v-34.7
			c4.3-2.7,8-6.5,10.7-10.9c4.5-7.5,5.9-16.4,3.7-24.9c-2.1-8.5-7.5-15.7-15-20.3c-5.1-3.1-11-4.7-17-4.7c-11.5,0-22.3,6.1-28.3,16
			c-2.6,4.4-4.2,9.3-4.6,14.4l-29.9,13.7c-1.1-0.9-2.2-1.7-3.4-2.4l2-27.3c8.9-2.4,17-7.3,23.4-14.3c8.4-9.1,13-21,13-33.4
			c0-27.3-22.2-49.5-49.5-49.5c-10.5,0-20.5,3.3-28.8,9.3l-26.2-18.3c0.9-7.5-0.7-15.2-4.6-21.9c-6.3-10.9-18.1-17.7-30.8-17.7
			c-6.2,0-12.4,1.7-17.8,4.8c-8.2,4.8-14.1,12.4-16.5,21.6c-2.4,9.2-1.2,18.8,3.6,27c6.3,10.9,18.1,17.7,30.8,17.7
			c5.8,0,11.6-1.5,16.8-4.2l25.9,18c-1.2,4.3-1.8,8.6-1.8,13.1c0,19.9,11.8,37.5,29.6,45.3l-2,27.3c-1.5,0.6-2.9,1.4-4.3,2.2
			c-8.3,4.9-14.1,12.8-16.5,22.1c-1.1,4.3-1.4,8.7-0.9,13H898c-1.4-3.7-4-6.9-7.2-9.1v-0.6v-10h-10h-4.8h-10H861h-10h-4.2l-0.2-5.1
			c1.1-0.5,2.2-1.1,3.2-1.7c22.5-13,30.1-41.9,17.1-64.4c-8.4-14.5-24-23.4-40.7-23.4c-1.5,0-3,0.1-4.6,0.2l-31.3-60.4
			c2.5-4,4.2-8.5,4.9-13.2c1-7.4-0.5-15.1-4.4-21.5c-5.9-9.9-16.8-16-28.3-16c-6,0-11.8,1.6-17,4.7c-4.4,2.7-8.1,6.3-10.8,10.6
			l-25.2-1C704.3,138.8,693.4,131.5,680.9,131.5L680.9,131.5L680.9,131.5L680.9,131.5z M703.7,185.3c0.9-0.9,1.8-1.9,2.5-3l27.1,1.1
			c0.3,0.6,0.6,1.1,0.9,1.7c5.7,9.4,15.8,15.4,26.7,15.9l31,59.7c-5.9,6.2-10,13.9-11.8,22.4c-2.5,11.5-0.6,23.4,5.3,33.6
			c6.3,10.8,16.5,18.6,28.3,21.8l0.1,2.1h-7.4h-4.8h-10h-7.3h-10v7.7c-6.4,1.4-11.6,6-13.9,12h-3.3c-1-4.4-2.6-8.6-5-12.6
			c-5.5-9.5-14.2-16.5-24.4-19.9l-1.2-22.2c16.5-7.4,27.5-23.9,27.5-42.6c0-24.1-18.3-43.9-41.7-46.4L703.7,185.3L703.7,185.3z
			 M907.1,387.7v-7.8c3.2,3.7,7.1,6.7,11.4,8.8l1,28c-5,3-9.3,7.1-12.5,12v-6.5v-4.8v-10v-4.8v-10V387.7L907.1,387.7z M853,380.9
			h5.3l-64.7,75.3H791c-0.8,0-1.5-0.3-2-0.8L853,380.9L853,380.9z M897.4,476.7h9.7v-6c3.1,4.8,7.4,8.9,12.4,11.9
			c1.5,0.9,3,1.7,4.6,2.3l0.7,20.2c-8.1,5-13.4,14-13.4,23.9c0,0.2,0,0.4,0,0.6l-19,13c-1-0.5-2-0.9-3-1.4l-11.7-45h2.9h10v-10v-1.9
			C893.6,482.6,896,479.9,897.4,476.7L897.4,476.7z" fill="#ffffff"></path>
	</g>
	<polygon class="st3" points="880.4,403.2 826.2,466.2 840.9,466.2 880.4,420.3 	" fill="#0f339e"></polygon>
	<polygon class="st3" points="821.5,370.9 778.2,421.4 778.2,436.3 834.4,370.9 	" fill="#0f339e"></polygon>
	<path class="st3" d="M880.4,453.4v-21.9l-29.9,34.8h17.1C874.6,466.2,880.4,460.4,880.4,453.4z" fill="#0f339e"></path>
	<path class="st3" d="M867.6,370.9h-19.2l-70.2,81.7v0.7c0,7.1,5.7,12.8,12.8,12.8h7.2l78.5-91.4
		C874.4,372.4,871.2,370.9,867.6,370.9z" fill="#0f339e"></path>
	<path class="st3" d="M791,370.9c-7.1,0-12.8,5.7-12.8,12.8v5l15.3-17.8H791z" fill="#0f339e"></path>
</g>
<defs></defs></svg>